<svg width="904" height="745" viewBox="0 0 904 745" fill="none" xmlns="http://www.w3.org/2000/svg">
<path d="M249.113 229.51V141.084C249.113 141.084 453.416 138.201 468.587 141.084C483.759 143.967 503.963 161.688 503.987 184.336C504.01 206.983 482.747 227.587 468.587 229.51C454.428 231.432 249.113 229.51 249.113 229.51Z" fill="#232323"/>
<path d="M439.759 503.012L267.464 365.243H439.759V503.012Z" fill="#232323"/>
<g filter="url(#filter0_d_312_988)">
<path d="M308.479 22.265C278.13 25.1553 247.313 54.6328 249.349 96.4485C249.349 96.4485 451.444 97.4857 486.891 99.3387C522.338 101.192 553.942 135.949 553.942 186.047C553.942 236.144 518.26 277.572 486.891 277.572H249.349V323.816C249.349 342.121 259.308 374.877 296.245 379.694C333.183 384.511 579.429 379.694 613.308 379.694C647.186 379.694 673.458 359.462 673.458 328.633C673.458 297.803 677.771 98.3753 673.458 77.18C669.145 55.9848 652.833 22.265 618.405 22.265C583.978 22.265 338.829 19.3748 308.479 22.265Z" fill="#8247E5"/>
</g>
<path d="M12.75 743.25C9.08333 743.25 6 742 3.5 739.5C1.16667 737.167 0 734.167 0 730.5V616.5C0.166667 603.333 3.25 591.5 9.25 581C15.25 570.5 23.4167 562.25 33.75 556.25C44.0833 550.083 55.75 547 68.75 547C81.9167 547 93.6667 550.083 104 556.25C114.333 562.25 122.5 570.5 128.5 581C134.667 591.5 137.75 603.333 137.75 616.5C137.75 629.667 134.917 641.5 129.25 652C123.75 662.333 116.167 670.583 106.5 676.75C96.8333 682.75 85.9167 685.75 73.75 685.75C63.9167 685.75 54.8333 683.75 46.5 679.75C38.3333 675.583 31.3333 670 25.5 663V730.5C25.5 734.167 24.3333 737.167 22 739.5C19.6667 742 16.5833 743.25 12.75 743.25ZM68.75 663.25C77.25 663.25 84.8333 661.25 91.5 657.25C98.1667 653.083 103.417 647.5 107.25 640.5C111.25 633.333 113.25 625.333 113.25 616.5C113.25 607.5 111.25 599.5 107.25 592.5C103.417 585.333 98.1667 579.75 91.5 575.75C84.8333 571.583 77.25 569.5 68.75 569.5C60.4167 569.5 52.8333 571.583 46 575.75C39.3333 579.75 34.0833 585.333 30.25 592.5C26.4167 599.5 24.5 607.5 24.5 616.5C24.5 625.333 26.4167 633.333 30.25 640.5C34.0833 647.5 39.3333 653.083 46 657.25C52.8333 661.25 60.4167 663.25 68.75 663.25Z" fill="#232323"/>
<path d="M232.781 685.75C220.615 685.75 209.698 682.75 200.031 676.75C190.365 670.583 182.698 662.333 177.031 652C171.531 641.5 168.781 629.667 168.781 616.5C168.781 603.333 171.781 591.5 177.781 581C183.948 570.5 192.198 562.25 202.531 556.25C213.031 550.083 224.781 547 237.781 547C250.781 547 262.448 550.083 272.781 556.25C283.115 562.25 291.281 570.5 297.281 581C303.448 591.5 306.531 603.333 306.531 616.5H296.781C296.781 629.667 293.948 641.5 288.281 652C282.781 662.333 275.198 670.583 265.531 676.75C255.865 682.75 244.948 685.75 232.781 685.75ZM237.781 663.25C246.281 663.25 253.865 661.25 260.531 657.25C267.198 653.083 272.448 647.5 276.281 640.5C280.115 633.333 282.031 625.333 282.031 616.5C282.031 607.5 280.115 599.5 276.281 592.5C272.448 585.333 267.198 579.75 260.531 575.75C253.865 571.583 246.281 569.5 237.781 569.5C229.448 569.5 221.865 571.583 215.031 575.75C208.365 579.75 203.031 585.333 199.031 592.5C195.198 599.5 193.281 607.5 193.281 616.5C193.281 625.333 195.198 633.333 199.031 640.5C203.031 647.5 208.365 653.083 215.031 657.25C221.865 661.25 229.448 663.25 237.781 663.25ZM293.781 685C290.115 685 287.031 683.833 284.531 681.5C282.198 679 281.031 675.917 281.031 672.25V634L285.781 607.5L306.531 616.5V672.25C306.531 675.917 305.281 679 302.781 681.5C300.448 683.833 297.448 685 293.781 685Z" fill="#232323"/>
<path d="M401.482 685.75C389.316 685.75 378.399 682.75 368.732 676.75C359.066 670.583 351.399 662.333 345.732 652C340.232 641.5 337.482 629.667 337.482 616.5C337.482 603.333 340.482 591.5 346.482 581C352.649 570.5 360.899 562.25 371.232 556.25C381.732 550.083 393.482 547 406.482 547C419.482 547 431.149 550.083 441.482 556.25C451.816 562.25 459.982 570.5 465.982 581C472.149 591.5 475.232 603.333 475.232 616.5H465.482C465.482 629.667 462.649 641.5 456.982 652C451.482 662.333 443.899 670.583 434.232 676.75C424.566 682.75 413.649 685.75 401.482 685.75ZM406.482 663.25C414.982 663.25 422.566 661.25 429.232 657.25C435.899 653.083 441.149 647.5 444.982 640.5C448.816 633.333 450.732 625.333 450.732 616.5C450.732 607.5 448.816 599.5 444.982 592.5C441.149 585.333 435.899 579.75 429.232 575.75C422.566 571.583 414.982 569.5 406.482 569.5C398.149 569.5 390.566 571.583 383.732 575.75C377.066 579.75 371.732 585.333 367.732 592.5C363.899 599.5 361.982 607.5 361.982 616.5C361.982 625.333 363.899 633.333 367.732 640.5C371.732 647.5 377.066 653.083 383.732 657.25C390.566 661.25 398.149 663.25 406.482 663.25ZM462.482 685C458.816 685 455.732 683.833 453.232 681.5C450.899 679 449.732 675.917 449.732 672.25V634L454.482 607.5L475.232 616.5V672.25C475.232 675.917 473.982 679 471.482 681.5C469.149 683.833 466.149 685 462.482 685Z" fill="#232323"/>
<path d="M551.865 684.5C546.699 684.5 542.699 681.75 539.865 676.25L486.865 564.5C485.532 561.667 485.365 558.917 486.365 556.25C487.532 553.417 489.699 551.25 492.865 549.75C495.699 548.25 498.532 548 501.365 549C504.365 550 506.615 551.917 508.115 554.75L557.615 661.5H545.615L594.615 554.75C596.115 551.917 598.365 550 601.365 549C604.532 548 607.699 548.25 610.865 549.75C613.865 551.083 615.865 553.167 616.865 556C617.865 558.833 617.699 561.667 616.365 564.5L563.365 676.25C560.865 681.75 557.032 684.5 551.865 684.5Z" fill="#232323"/>
<path d="M667.078 744.75C665.411 744.75 663.411 744.25 661.078 743.25C653.745 739.917 651.745 734.667 655.078 727.5L731.328 555.25C734.661 548.25 739.911 546.25 747.078 549.25C754.578 552.417 756.661 557.667 753.328 565L676.828 737C674.828 742.167 671.578 744.75 667.078 744.75ZM696.578 679.25C693.411 680.583 690.411 680.75 687.578 679.75C684.911 678.583 682.745 676.417 681.078 673.25L623.828 564.5C622.161 561.333 621.911 558.333 623.078 555.5C624.411 552.5 626.661 550.333 629.828 549C632.995 547.667 635.995 547.583 638.828 548.75C641.661 549.75 643.828 551.833 645.328 555L700.078 663.75C701.745 666.917 702.328 670 701.828 673C701.495 675.833 699.745 677.917 696.578 679.25Z" fill="#232323"/>
<path d="M829.461 685.75C817.294 685.75 806.378 682.75 796.711 676.75C787.044 670.583 779.378 662.333 773.711 652C768.211 641.5 765.461 629.667 765.461 616.5C765.461 603.333 768.461 591.5 774.461 581C780.628 570.5 788.878 562.25 799.211 556.25C809.711 550.083 821.461 547 834.461 547C847.461 547 859.128 550.083 869.461 556.25C879.794 562.25 887.961 570.5 893.961 581C900.128 591.5 903.211 603.333 903.211 616.5H893.461C893.461 629.667 890.628 641.5 884.961 652C879.461 662.333 871.878 670.583 862.211 676.75C852.544 682.75 841.628 685.75 829.461 685.75ZM834.461 663.25C842.961 663.25 850.544 661.25 857.211 657.25C863.878 653.083 869.128 647.5 872.961 640.5C876.794 633.333 878.711 625.333 878.711 616.5C878.711 607.5 876.794 599.5 872.961 592.5C869.128 585.333 863.878 579.75 857.211 575.75C850.544 571.583 842.961 569.5 834.461 569.5C826.128 569.5 818.544 571.583 811.711 575.75C805.044 579.75 799.711 585.333 795.711 592.5C791.878 599.5 789.961 607.5 789.961 616.5C789.961 625.333 791.878 633.333 795.711 640.5C799.711 647.5 805.044 653.083 811.711 657.25C818.544 661.25 826.128 663.25 834.461 663.25ZM890.461 685C886.794 685 883.711 683.833 881.211 681.5C878.878 679 877.711 675.917 877.711 672.25V634L882.461 607.5L903.211 616.5V672.25C903.211 675.917 901.961 679 899.461 681.5C897.128 683.833 894.128 685 890.461 685Z" fill="#232323"/>
<defs>
<filter id="filter0_d_312_988" x="245.253" y="20.9805" width="434.122" height="368.855" filterUnits="userSpaceOnUse" color-interpolation-filters="sRGB">
<feFlood flood-opacity="0" result="BackgroundImageFix"/>
<feColorMatrix in="SourceAlpha" type="matrix" values="0 0 0 0 0 0 0 0 0 0 0 0 0 0 0 0 0 0 127 0" result="hardAlpha"/>
<feOffset dy="4"/>
<feGaussianBlur stdDeviation="2"/>
<feComposite in2="hardAlpha" operator="out"/>
<feColorMatrix type="matrix" values="0 0 0 0 0 0 0 0 0 0 0 0 0 0 0 0 0 0 0.25 0"/>
<feBlend mode="normal" in2="BackgroundImageFix" result="effect1_dropShadow_312_988"/>
<feBlend mode="normal" in="SourceGraphic" in2="effect1_dropShadow_312_988" result="shape"/>
</filter>
</defs>
</svg>
