<svg width="1202" height="251" viewBox="0 0 1202 251" fill="none" xmlns="http://www.w3.org/2000/svg">
<path d="M4 108.557V62.6651C4 62.6651 104.198 61.1686 111.639 62.6651C119.079 64.1615 128.989 73.3583 129 85.112C129.011 96.8658 118.583 107.559 111.639 108.557C104.694 109.554 4 108.557 4 108.557Z" fill="#232323"/>
<path d="M97.5 250.167L13 178.667H97.5V250.167Z" fill="#232323"/>
<g filter="url(#filter0_d_42_1050)">
<path d="M33.1153 0.666663C18.2307 2.16665 3.1168 17.465 4.11526 39.1667C4.11526 39.1667 103.231 39.705 120.615 40.6667C138 41.6284 153.5 59.6666 153.5 85.6666C153.5 111.667 136 133.167 120.615 133.167H4.11526V157.167C4.11526 166.667 8.99983 183.667 27.1153 186.167C45.2307 188.667 166 186.167 182.615 186.167C199.231 186.167 212.115 175.667 212.115 159.667C212.115 143.667 214.231 40.1666 212.115 29.1667C210 18.1667 202 0.666664 185.115 0.666663C168.231 0.666662 47.9998 -0.833328 33.1153 0.666663Z" fill="#8247E5"/>
</g>
<path d="M311.25 218.167C307.583 218.167 304.5 216.917 302 214.417C299.667 212.083 298.5 209.083 298.5 205.417V91.4167C298.667 78.2501 301.75 66.4167 307.75 55.9167C313.75 45.4167 321.917 37.1667 332.25 31.1667C342.583 25.0001 354.25 21.9167 367.25 21.9167C380.417 21.9167 392.167 25.0001 402.5 31.1667C412.833 37.1667 421 45.4167 427 55.9167C433.167 66.4167 436.25 78.2501 436.25 91.4167C436.25 104.583 433.417 116.417 427.75 126.917C422.25 137.25 414.667 145.5 405 151.667C395.333 157.667 384.417 160.667 372.25 160.667C362.417 160.667 353.333 158.667 345 154.667C336.833 150.5 329.833 144.917 324 137.917V205.417C324 209.083 322.833 212.083 320.5 214.417C318.167 216.917 315.083 218.167 311.25 218.167ZM367.25 138.167C375.75 138.167 383.333 136.167 390 132.167C396.667 128 401.917 122.417 405.75 115.417C409.75 108.25 411.75 100.25 411.75 91.4167C411.75 82.4167 409.75 74.4167 405.75 67.4167C401.917 60.2501 396.667 54.6667 390 50.6667C383.333 46.5001 375.75 44.4167 367.25 44.4167C358.917 44.4167 351.333 46.5001 344.5 50.6667C337.833 54.6667 332.583 60.2501 328.75 67.4167C324.917 74.4167 323 82.4167 323 91.4167C323 100.25 324.917 108.25 328.75 115.417C332.583 122.417 337.833 128 344.5 132.167C351.333 136.167 358.917 138.167 367.25 138.167Z" fill="#8247E5"/>
<path d="M531.281 160.667C519.115 160.667 508.198 157.667 498.531 151.667C488.865 145.5 481.198 137.25 475.531 126.917C470.031 116.417 467.281 104.583 467.281 91.4167C467.281 78.2501 470.281 66.4167 476.281 55.9167C482.448 45.4167 490.698 37.1667 501.031 31.1667C511.531 25.0001 523.281 21.9167 536.281 21.9167C549.281 21.9167 560.948 25.0001 571.281 31.1667C581.615 37.1667 589.781 45.4167 595.781 55.9167C601.948 66.4167 605.031 78.2501 605.031 91.4167H595.281C595.281 104.583 592.448 116.417 586.781 126.917C581.281 137.25 573.698 145.5 564.031 151.667C554.365 157.667 543.448 160.667 531.281 160.667ZM536.281 138.167C544.781 138.167 552.365 136.167 559.031 132.167C565.698 128 570.948 122.417 574.781 115.417C578.615 108.25 580.531 100.25 580.531 91.4167C580.531 82.4167 578.615 74.4167 574.781 67.4167C570.948 60.2501 565.698 54.6667 559.031 50.6667C552.365 46.5001 544.781 44.4167 536.281 44.4167C527.948 44.4167 520.365 46.5001 513.531 50.6667C506.865 54.6667 501.531 60.2501 497.531 67.4167C493.698 74.4167 491.781 82.4167 491.781 91.4167C491.781 100.25 493.698 108.25 497.531 115.417C501.531 122.417 506.865 128 513.531 132.167C520.365 136.167 527.948 138.167 536.281 138.167ZM592.281 159.917C588.615 159.917 585.531 158.75 583.031 156.417C580.698 153.917 579.531 150.833 579.531 147.167V108.917L584.281 82.4167L605.031 91.4167V147.167C605.031 150.833 603.781 153.917 601.281 156.417C598.948 158.75 595.948 159.917 592.281 159.917Z" fill="#8247E5"/>
<path d="M699.982 160.667C687.816 160.667 676.899 157.667 667.232 151.667C657.566 145.5 649.899 137.25 644.232 126.917C638.732 116.417 635.982 104.583 635.982 91.4167C635.982 78.2501 638.982 66.4167 644.982 55.9167C651.149 45.4167 659.399 37.1667 669.732 31.1667C680.232 25.0001 691.982 21.9167 704.982 21.9167C717.982 21.9167 729.649 25.0001 739.982 31.1667C750.316 37.1667 758.482 45.4167 764.482 55.9167C770.649 66.4167 773.732 78.2501 773.732 91.4167H763.982C763.982 104.583 761.149 116.417 755.482 126.917C749.982 137.25 742.399 145.5 732.732 151.667C723.066 157.667 712.149 160.667 699.982 160.667ZM704.982 138.167C713.482 138.167 721.066 136.167 727.732 132.167C734.399 128 739.649 122.417 743.482 115.417C747.316 108.25 749.232 100.25 749.232 91.4167C749.232 82.4167 747.316 74.4167 743.482 67.4167C739.649 60.2501 734.399 54.6667 727.732 50.6667C721.066 46.5001 713.482 44.4167 704.982 44.4167C696.649 44.4167 689.066 46.5001 682.232 50.6667C675.566 54.6667 670.232 60.2501 666.232 67.4167C662.399 74.4167 660.482 82.4167 660.482 91.4167C660.482 100.25 662.399 108.25 666.232 115.417C670.232 122.417 675.566 128 682.232 132.167C689.066 136.167 696.649 138.167 704.982 138.167ZM760.982 159.917C757.316 159.917 754.232 158.75 751.732 156.417C749.399 153.917 748.232 150.833 748.232 147.167V108.917L752.982 82.4167L773.732 91.4167V147.167C773.732 150.833 772.482 153.917 769.982 156.417C767.649 158.75 764.649 159.917 760.982 159.917Z" fill="#8247E5"/>
<path d="M850.365 159.417C845.199 159.417 841.199 156.667 838.365 151.167L785.365 39.4167C784.032 36.5834 783.865 33.8334 784.865 31.1667C786.032 28.3334 788.199 26.1667 791.365 24.6667C794.199 23.1667 797.032 22.9167 799.865 23.9167C802.865 24.9167 805.115 26.8334 806.615 29.6667L856.115 136.417H844.115L893.115 29.6667C894.615 26.8334 896.865 24.9167 899.865 23.9167C903.032 22.9167 906.199 23.1667 909.365 24.6667C912.365 26.0001 914.365 28.0834 915.365 30.9167C916.365 33.7501 916.199 36.5834 914.865 39.4167L861.865 151.167C859.365 156.667 855.532 159.417 850.365 159.417Z" fill="#8247E5"/>
<path d="M965.578 219.667C963.911 219.667 961.911 219.167 959.578 218.167C952.245 214.833 950.245 209.583 953.578 202.417L1029.83 30.1667C1033.16 23.1667 1038.41 21.1667 1045.58 24.1667C1053.08 27.3334 1055.16 32.5834 1051.83 39.9167L975.328 211.917C973.328 217.083 970.078 219.667 965.578 219.667ZM995.078 154.167C991.911 155.5 988.911 155.667 986.078 154.667C983.411 153.5 981.245 151.333 979.578 148.167L922.328 39.4167C920.661 36.2501 920.411 33.2501 921.578 30.4167C922.911 27.4167 925.161 25.2501 928.328 23.9167C931.495 22.5834 934.495 22.5001 937.328 23.6667C940.161 24.6667 942.328 26.7501 943.828 29.9167L998.578 138.667C1000.24 141.833 1000.83 144.917 1000.33 147.917C999.995 150.75 998.245 152.833 995.078 154.167Z" fill="#8247E5"/>
<path d="M1127.96 160.667C1115.79 160.667 1104.88 157.667 1095.21 151.667C1085.54 145.5 1077.88 137.25 1072.21 126.917C1066.71 116.417 1063.96 104.583 1063.96 91.4167C1063.96 78.2501 1066.96 66.4167 1072.96 55.9167C1079.13 45.4167 1087.38 37.1667 1097.71 31.1667C1108.21 25.0001 1119.96 21.9167 1132.96 21.9167C1145.96 21.9167 1157.63 25.0001 1167.96 31.1667C1178.29 37.1667 1186.46 45.4167 1192.46 55.9167C1198.63 66.4167 1201.71 78.2501 1201.71 91.4167H1191.96C1191.96 104.583 1189.13 116.417 1183.46 126.917C1177.96 137.25 1170.38 145.5 1160.71 151.667C1151.04 157.667 1140.13 160.667 1127.96 160.667ZM1132.96 138.167C1141.46 138.167 1149.04 136.167 1155.71 132.167C1162.38 128 1167.63 122.417 1171.46 115.417C1175.29 108.25 1177.21 100.25 1177.21 91.4167C1177.21 82.4167 1175.29 74.4167 1171.46 67.4167C1167.63 60.2501 1162.38 54.6667 1155.71 50.6667C1149.04 46.5001 1141.46 44.4167 1132.96 44.4167C1124.63 44.4167 1117.04 46.5001 1110.21 50.6667C1103.54 54.6667 1098.21 60.2501 1094.21 67.4167C1090.38 74.4167 1088.46 82.4167 1088.46 91.4167C1088.46 100.25 1090.38 108.25 1094.21 115.417C1098.21 122.417 1103.54 128 1110.21 132.167C1117.04 136.167 1124.63 138.167 1132.96 138.167ZM1188.96 159.917C1185.29 159.917 1182.21 158.75 1179.71 156.417C1177.38 153.917 1176.21 150.833 1176.21 147.167V108.917L1180.96 82.4167L1201.71 91.4167V147.167C1201.71 150.833 1200.46 153.917 1197.96 156.417C1195.63 158.75 1192.63 159.917 1188.96 159.917Z" fill="#8247E5"/>
<defs>
<filter id="filter0_d_42_1050" x="0.0683594" y="0" width="216.987" height="195.278" filterUnits="userSpaceOnUse" color-interpolation-filters="sRGB">
<feFlood flood-opacity="0" result="BackgroundImageFix"/>
<feColorMatrix in="SourceAlpha" type="matrix" values="0 0 0 0 0 0 0 0 0 0 0 0 0 0 0 0 0 0 127 0" result="hardAlpha"/>
<feOffset dy="4"/>
<feGaussianBlur stdDeviation="2"/>
<feComposite in2="hardAlpha" operator="out"/>
<feColorMatrix type="matrix" values="0 0 0 0 0 0 0 0 0 0 0 0 0 0 0 0 0 0 0.25 0"/>
<feBlend mode="normal" in2="BackgroundImageFix" result="effect1_dropShadow_42_1050"/>
<feBlend mode="normal" in="SourceGraphic" in2="effect1_dropShadow_42_1050" result="shape"/>
</filter>
</defs>
</svg>
