<svg width="1205" height="251" viewBox="0 0 1205 251" fill="none" xmlns="http://www.w3.org/2000/svg">
<path d="M4 108.223V62.3318C4 62.3318 104.198 60.8354 111.639 62.3318C119.079 63.8283 128.989 73.025 129 84.7788C129.011 96.5326 118.583 107.226 111.639 108.223C104.694 109.221 4 108.223 4 108.223Z" fill="#F7F7F7"/>
<path d="M97.5 250.167L13 178.667H97.5V250.167Z" fill="#F7F7F7"/>
<g filter="url(#filter0_d_42_1042)">
<path d="M33.1155 0.666663C18.2309 2.16665 3.11704 17.465 4.11551 39.1667C4.11551 39.1667 103.231 39.705 120.616 40.6667C138 41.6284 153.5 59.6666 153.5 85.6666C153.5 111.667 136 133.167 120.616 133.167H4.11551V157.167C4.11551 166.667 9.00008 183.667 27.1155 186.167C45.2309 188.667 166 186.167 182.616 186.167C199.231 186.167 212.116 175.667 212.116 159.667C212.116 143.667 214.231 40.1666 212.116 29.1667C210 18.1667 202 0.666664 185.116 0.666663C168.231 0.666662 48.0001 -0.833328 33.1155 0.666663Z" fill="#F7F7F7"/>
</g>
<path d="M271.58 208.84C268.113 208.84 265.34 207.8 263.26 205.72C261.353 203.813 260.4 201.127 260.4 197.66V76.24C260.573 62.72 263.78 50.5867 270.02 39.84C276.433 28.92 285.013 20.34 295.76 14.1C306.507 7.68665 318.64 4.47998 332.16 4.47998C346.027 4.47998 358.333 7.68665 369.08 14.1C380 20.34 388.58 28.92 394.82 39.84C401.233 50.76 404.44 63.1533 404.44 77.02C404.44 90.7133 401.407 103.02 395.34 113.94C389.447 124.86 381.3 133.527 370.9 139.94C360.5 146.18 348.713 149.3 335.54 149.3C324.273 149.3 314.047 146.96 304.86 142.28C295.673 137.427 288.22 131.1 282.5 123.3V197.66C282.5 201.127 281.46 203.813 279.38 205.72C277.3 207.8 274.7 208.84 271.58 208.84ZM332.16 129.54C341.867 129.54 350.533 127.287 358.16 122.78C365.96 118.1 372.027 111.773 376.36 103.8C380.867 95.8267 383.12 86.9 383.12 77.02C383.12 66.9667 380.867 58.04 376.36 50.24C372.027 42.2667 365.96 35.94 358.16 31.26C350.533 26.58 341.867 24.24 332.16 24.24C322.8 24.24 314.22 26.58 306.42 31.26C298.793 35.94 292.813 42.2667 288.48 50.24C284.147 58.04 281.98 66.9667 281.98 77.02C281.98 86.9 284.147 95.8267 288.48 103.8C292.813 111.773 298.793 118.1 306.42 122.78C314.047 127.287 322.627 129.54 332.16 129.54Z" fill="#F6F6F6"/>
<path d="M505.594 149.3C492.421 149.3 480.634 146.18 470.234 139.94C459.834 133.527 451.601 124.86 445.534 113.94C439.467 103.02 436.434 90.7133 436.434 77.02C436.434 63.1533 439.554 50.76 445.794 39.84C452.207 28.92 460.874 20.34 471.794 14.1C482.714 7.68665 495.021 4.47998 508.714 4.47998C522.234 4.47998 534.367 7.68665 545.114 14.1C556.034 20.34 564.614 28.92 570.854 39.84C577.267 50.76 580.561 63.1533 580.734 77.02L571.894 81.44C571.894 94.2667 568.947 105.793 563.054 116.02C557.334 126.247 549.447 134.393 539.394 140.46C529.514 146.353 518.247 149.3 505.594 149.3ZM508.714 129.54C518.421 129.54 527.001 127.287 534.454 122.78C542.081 118.1 548.061 111.773 552.394 103.8C556.901 95.8267 559.154 86.9 559.154 77.02C559.154 66.9667 556.901 58.04 552.394 50.24C548.061 42.2667 542.081 35.94 534.454 31.26C527.001 26.58 518.421 24.24 508.714 24.24C499.181 24.24 490.514 26.58 482.714 31.26C475.087 35.94 469.021 42.2667 464.514 50.24C460.007 58.04 457.754 66.9667 457.754 77.02C457.754 86.9 460.007 95.8267 464.514 103.8C469.021 111.773 475.087 118.1 482.714 122.78C490.514 127.287 499.181 129.54 508.714 129.54ZM569.554 148C566.434 148 563.747 147.047 561.494 145.14C559.414 143.06 558.374 140.373 558.374 137.08V94.18L563.314 71.56L580.734 77.02V137.08C580.734 140.373 579.694 143.06 577.614 145.14C575.534 147.047 572.847 148 569.554 148Z" fill="#F6F6F6"/>
<path d="M681.297 149.3C668.124 149.3 656.337 146.18 645.937 139.94C635.537 133.527 627.304 124.86 621.237 113.94C615.171 103.02 612.137 90.7133 612.137 77.02C612.137 63.1533 615.257 50.76 621.497 39.84C627.911 28.92 636.577 20.34 647.497 14.1C658.417 7.68665 670.724 4.47998 684.417 4.47998C697.937 4.47998 710.071 7.68665 720.817 14.1C731.737 20.34 740.317 28.92 746.557 39.84C752.971 50.76 756.264 63.1533 756.437 77.02L747.597 81.44C747.597 94.2667 744.651 105.793 738.757 116.02C733.037 126.247 725.151 134.393 715.097 140.46C705.217 146.353 693.951 149.3 681.297 149.3ZM684.417 129.54C694.124 129.54 702.704 127.287 710.157 122.78C717.784 118.1 723.764 111.773 728.097 103.8C732.604 95.8267 734.857 86.9 734.857 77.02C734.857 66.9667 732.604 58.04 728.097 50.24C723.764 42.2667 717.784 35.94 710.157 31.26C702.704 26.58 694.124 24.24 684.417 24.24C674.884 24.24 666.217 26.58 658.417 31.26C650.791 35.94 644.724 42.2667 640.217 50.24C635.711 58.04 633.457 66.9667 633.457 77.02C633.457 86.9 635.711 95.8267 640.217 103.8C644.724 111.773 650.791 118.1 658.417 122.78C666.217 127.287 674.884 129.54 684.417 129.54ZM745.257 148C742.137 148 739.451 147.047 737.197 145.14C735.117 143.06 734.077 140.373 734.077 137.08V94.18L739.017 71.56L756.437 77.02V137.08C756.437 140.373 755.397 143.06 753.317 145.14C751.237 147.047 748.551 148 745.257 148Z" fill="#F6F6F6"/>
<path d="M835.869 148C831.363 148 827.983 145.573 825.729 140.72L768.789 20.08C767.576 17.6533 767.403 15.2266 768.269 12.8C769.309 10.3733 771.216 8.46665 773.989 7.07998C776.589 5.69332 779.103 5.51999 781.529 6.55999C784.129 7.42665 786.123 9.07332 787.509 11.5L841.589 128.76H830.409L883.969 11.5C885.009 8.89999 886.916 7.16665 889.689 6.29999C892.463 5.43332 895.149 5.60665 897.749 6.81998C900.523 8.20665 902.343 10.2 903.209 12.8C904.076 15.2266 903.989 17.5666 902.949 19.82L846.529 140.72C844.276 145.573 840.723 148 835.869 148Z" fill="#F6F6F6"/>
<path d="M955.412 210.14C954.026 210.14 952.292 209.707 950.212 208.84C943.799 205.893 942.066 201.3 945.012 195.06L1027.43 11.76C1030.38 5.69332 1034.97 4.04665 1041.21 6.81998C1047.63 9.41999 1049.45 13.9267 1046.67 20.34L963.732 203.38C961.999 207.887 959.226 210.14 955.412 210.14ZM984.792 143.06C982.019 144.447 979.419 144.707 976.992 143.84C974.566 142.973 972.572 141.067 971.012 138.12L912.772 20.34C911.386 17.3933 911.126 14.7067 911.992 12.28C913.032 9.85332 914.939 7.94666 917.712 6.55999C920.659 5.34666 923.346 5.17333 925.772 6.03999C928.199 6.90666 930.106 8.72666 931.492 11.5L988.432 129.54C989.819 132.313 990.252 135 989.732 137.6C989.386 140.027 987.739 141.847 984.792 143.06Z" fill="#F6F6F6"/>
<path d="M1128.93 149.3C1115.76 149.3 1103.97 146.18 1093.57 139.94C1083.17 133.527 1074.94 124.86 1068.87 113.94C1062.81 103.02 1059.77 90.7133 1059.77 77.02C1059.77 63.1533 1062.89 50.76 1069.13 39.84C1075.55 28.92 1084.21 20.34 1095.13 14.1C1106.05 7.68665 1118.36 4.47998 1132.05 4.47998C1145.57 4.47998 1157.71 7.68665 1168.45 14.1C1179.37 20.34 1187.95 28.92 1194.19 39.84C1200.61 50.76 1203.9 63.1533 1204.07 77.02L1195.23 81.44C1195.23 94.2667 1192.29 105.793 1186.39 116.02C1180.67 126.247 1172.79 134.393 1162.73 140.46C1152.85 146.353 1141.59 149.3 1128.93 149.3ZM1132.05 129.54C1141.76 129.54 1150.34 127.287 1157.79 122.78C1165.42 118.1 1171.4 111.773 1175.73 103.8C1180.24 95.8267 1182.49 86.9 1182.49 77.02C1182.49 66.9667 1180.24 58.04 1175.73 50.24C1171.4 42.2667 1165.42 35.94 1157.79 31.26C1150.34 26.58 1141.76 24.24 1132.05 24.24C1122.52 24.24 1113.85 26.58 1106.05 31.26C1098.43 35.94 1092.36 42.2667 1087.85 50.24C1083.35 58.04 1081.09 66.9667 1081.09 77.02C1081.09 86.9 1083.35 95.8267 1087.85 103.8C1092.36 111.773 1098.43 118.1 1106.05 122.78C1113.85 127.287 1122.52 129.54 1132.05 129.54ZM1192.89 148C1189.77 148 1187.09 147.047 1184.83 145.14C1182.75 143.06 1181.71 140.373 1181.71 137.08V94.18L1186.65 71.56L1204.07 77.02V137.08C1204.07 140.373 1203.03 143.06 1200.95 145.14C1198.87 147.047 1196.19 148 1192.89 148Z" fill="#F6F6F6"/>
<defs>
<filter id="filter0_d_42_1042" x="0.0686035" y="0" width="216.987" height="195.278" filterUnits="userSpaceOnUse" color-interpolation-filters="sRGB">
<feFlood flood-opacity="0" result="BackgroundImageFix"/>
<feColorMatrix in="SourceAlpha" type="matrix" values="0 0 0 0 0 0 0 0 0 0 0 0 0 0 0 0 0 0 127 0" result="hardAlpha"/>
<feOffset dy="4"/>
<feGaussianBlur stdDeviation="2"/>
<feComposite in2="hardAlpha" operator="out"/>
<feColorMatrix type="matrix" values="0 0 0 0 0 0 0 0 0 0 0 0 0 0 0 0 0 0 0.25 0"/>
<feBlend mode="normal" in2="BackgroundImageFix" result="effect1_dropShadow_42_1042"/>
<feBlend mode="normal" in="SourceGraphic" in2="effect1_dropShadow_42_1042" result="shape"/>
</filter>
</defs>
</svg>
